<?xml version="1.0" encoding="iso-8859-1"?>
<!-- Uploaded to: SVG Repo, www.svgrepo.com, Generator: SVG Repo Mixer Tools -->
<svg height="800px" width="800px" version="1.1" id="Layer_1" xmlns="http://www.w3.org/2000/svg" xmlns:xlink="http://www.w3.org/1999/xlink" 
	 viewBox="0 0 512 512" xml:space="preserve">
<g>
	<g>
		<g>
			<path style="fill:#231F20;" d="M418.048,111.18V52.221c0-10.572-8.571-19.143-19.143-19.143H113.094
				c-10.572,0-19.143,8.571-19.143,19.143v58.959C42.42,111.18,0,145.85,0,197.807v194.489c0,48.103,39.164,86.627,86.639,86.627
				h338.721c47.41,0,86.639-38.457,86.639-86.627V197.807C512,146.132,469.936,111.18,418.048,111.18z M418.048,149.465
				c8.395,0,20.349-0.946,33.877,7.967l-33.877,22.171V149.465z M379.763,71.364c0,13.405,0,120.275,0,133.308l-112.064,73.34
				c-7.092,4.639-16.275,4.661-23.392,0.003l-112.068-73.343c-0.001-13.031-0.001-119.908-0.001-133.308H379.763z M93.952,149.465
				v30.138l-33.878-22.172C73.527,148.569,85.409,149.465,93.952,149.465z M39.042,189.423
				c127.899,83.704-1.039-0.666,126.763,82.973L38.285,389.276C38.285,180.577,37.961,195.591,39.042,189.423z M425.361,440.638
				H86.639v-0.001c-12.54,0-24.379-4.893-33.243-13.279L198.862,294.03c61.984,40.564,69.821,29.092,114.276,0l145.466,133.329
				C449.739,435.746,437.9,440.638,425.361,440.638z M473.714,389.274L346.195,272.395c127.7-83.571-1.038,0.667,126.763-82.973
				C474.038,195.586,473.714,180.611,473.714,389.274z"/>
			<path style="fill:#231F20;" d="M196.897,139.358h118.208c10.572,0,19.143-8.571,19.143-19.143
				c0-10.572-8.571-19.143-19.143-19.143H196.897c-10.572,0-19.143,8.571-19.143,19.143
				C177.754,130.787,186.324,139.358,196.897,139.358z"/>
			<path style="fill:#231F20;" d="M171.373,207.033h169.255c10.572,0,19.143-8.571,19.143-19.143
				c0-10.572-8.571-19.143-19.143-19.143H171.373c-10.572,0-19.143,8.571-19.143,19.143
				C152.231,198.463,160.8,207.033,171.373,207.033z"/>
		</g>
	</g>
</g>
</svg>